<?xml version="1.0" standalone="no"?>
<!DOCTYPE svg PUBLIC "-//W3C//DTD SVG 20010904//EN"
 "http://www.w3.org/TR/2001/REC-SVG-20010904/DTD/svg10.dtd">
<svg version="1.0" xmlns="http://www.w3.org/2000/svg"
 width="588.000000pt" height="588.000000pt" viewBox="0 0 588.000000 588.000000"
 preserveAspectRatio="xMidYMid meet">
<metadata>
Created by potrace 1.11, written by Peter Selinger 2001-2013
</metadata>
<g transform="translate(0.000000,588.000000) scale(0.100000,-0.100000)"
fill="#000000" stroke="none">
<path d="M2883 5123 c3 -5 -21 -8 -54 -8 -32 0 -59 -2 -59 -5 0 -3 -21 -6 -48
-6 -26 -1 -72 -5 -102 -8 -73 -10 -138 -16 -177 -19 -18 -1 -33 -6 -33 -10 0
-5 -4 -5 -10 -2 -5 3 -16 3 -22 -1 -12 -8 -24 -10 -73 -17 -11 -1 -26 -6 -32
-10 -7 -5 -13 -5 -13 -1 0 3 -12 -1 -26 -11 -18 -11 -24 -12 -18 -4 6 11 5 12
-7 3 -8 -7 -29 -15 -46 -19 -18 -3 -33 -11 -33 -17 0 -6 -3 -8 -7 -5 -3 4 -15
0 -25 -10 -10 -9 -21 -13 -25 -10 -3 4 -13 1 -21 -5 -8 -7 -20 -13 -28 -14
-23 -4 -74 -28 -74 -36 0 -5 -7 -8 -15 -8 -8 0 -15 -4 -15 -8 0 -4 -9 -8 -20
-9 -11 -1 -29 -11 -41 -22 -12 -11 -35 -25 -53 -32 -17 -7 -40 -19 -50 -28
-16 -13 -18 -13 -11 -1 5 8 -13 -1 -40 -20 -28 -19 -57 -36 -65 -38 -8 -2 -17
-7 -20 -11 -3 -4 -22 -17 -42 -30 -21 -12 -38 -27 -38 -32 0 -5 -4 -9 -10 -9
-11 0 -50 -36 -50 -46 0 -3 -21 -24 -46 -47 -26 -23 -62 -57 -80 -74 -19 -18
-34 -30 -34 -26 0 4 -9 -3 -20 -14 -10 -12 -29 -24 -40 -28 -11 -4 -18 -10
-15 -14 5 -9 -49 -74 -56 -67 -2 3 -20 -20 -38 -49 -19 -30 -38 -52 -42 -50
-11 8 -40 -6 -33 -16 3 -5 0 -9 -6 -9 -6 0 -9 -4 -6 -9 3 -5 -3 -20 -14 -33
-10 -14 -22 -36 -25 -51 -4 -14 -12 -25 -18 -24 -5 1 -17 -16 -26 -38 -8 -22
-18 -42 -22 -45 -13 -10 -40 -71 -34 -79 3 -5 -1 -15 -8 -23 -18 -18 -42 -61
-39 -70 1 -5 -2 -8 -8 -8 -5 0 -10 -6 -10 -14 0 -8 -5 -27 -11 -43 -6 -15 -10
-30 -9 -32 1 -2 -2 -7 -7 -10 -9 -6 -47 -117 -57 -166 -15 -73 -19 -91 -20
-107 -1 -10 -5 -21 -9 -24 -4 -4 -7 -18 -7 -31 0 -13 -4 -23 -8 -23 -4 0 -7
-12 -6 -27 1 -16 -3 -37 -9 -47 -5 -11 -11 -52 -13 -90 -2 -39 -4 -71 -4 -71
-2 0 -9 -103 -14 -200 -2 -44 -5 -84 -6 -90 -2 -5 0 -21 3 -35 4 -14 9 -50 11
-80 3 -30 8 -68 11 -85 4 -16 7 -38 8 -47 1 -10 5 -18 10 -18 5 0 7 -7 3 -15
-3 -8 0 -15 6 -15 6 0 8 -3 5 -7 -4 -3 -2 -12 3 -18 6 -7 12 -27 13 -44 1 -17
5 -31 8 -31 3 0 6 -6 7 -12 0 -7 3 -20 5 -28 2 -8 8 -34 12 -57 4 -24 11 -43
16 -43 4 0 6 -9 4 -20 -2 -11 -1 -20 3 -20 7 0 10 -10 15 -65 1 -14 6 -25 11
-25 5 0 7 -3 3 -6 -3 -4 0 -22 8 -41 8 -19 12 -39 9 -44 -3 -5 -1 -9 4 -9 6 0
13 -16 16 -35 4 -19 14 -41 22 -50 9 -8 13 -15 10 -15 -4 0 2 -17 13 -39 11
-21 17 -41 14 -45 -4 -3 -1 -6 5 -6 7 0 12 -5 12 -11 0 -24 63 -139 73 -132 5
3 7 1 3 -5 -3 -5 10 -31 30 -57 19 -26 31 -44 26 -41 -6 3 -5 -5 1 -19 7 -14
15 -25 20 -25 4 0 7 -9 7 -20 0 -11 5 -20 10 -20 6 0 18 -16 27 -35 15 -31 23
-37 49 -35 3 1 18 -13 33 -29 16 -17 31 -28 34 -25 3 3 18 -11 34 -30 15 -20
34 -36 41 -36 6 0 12 -5 12 -11 0 -5 4 -8 9 -5 8 5 23 -16 25 -36 1 -3 4 -9 8
-13 4 -4 4 -13 1 -21 -4 -10 0 -12 11 -8 10 4 29 -8 55 -33 46 -45 74 -69 82
-68 3 0 18 -15 33 -32 15 -18 31 -33 36 -33 7 0 63 -33 163 -96 26 -17 45 -33
42 -37 -3 -4 -2 -5 1 -2 4 2 21 -6 38 -19 34 -25 116 -62 128 -59 5 2 8 -2 8
-7 0 -6 5 -10 11 -10 5 0 31 -9 56 -21 25 -11 53 -22 62 -24 9 -2 30 -9 46
-16 17 -7 32 -13 35 -14 3 0 22 -7 44 -14 21 -7 54 -15 73 -17 19 -2 40 -7 46
-12 7 -5 21 -8 31 -6 11 1 36 -4 55 -12 20 -9 61 -17 91 -19 30 -2 75 -7 100
-11 25 -5 69 -8 98 -8 28 -1 52 -4 52 -7 0 -3 18 -6 41 -7 22 -1 45 -4 50 -8
5 -3 9 -1 9 3 0 5 17 9 38 8 20 0 43 4 51 10 11 8 13 7 7 -3 -7 -11 -4 -12 10
-4 11 5 46 10 79 10 33 0 62 1 65 2 3 1 23 4 45 6 22 1 63 6 90 9 28 4 58 7
68 8 9 1 17 4 17 7 0 6 7 7 73 12 20 1 37 6 37 10 0 4 14 8 30 8 17 0 30 5 30
11 0 5 4 8 9 5 5 -4 22 -1 38 5 26 10 37 13 82 23 36 8 121 49 121 58 0 5 4 7
9 4 13 -8 101 31 101 45 0 6 7 9 15 5 8 -3 15 -1 15 5 0 6 5 7 10 4 6 -3 10
-2 10 4 0 6 7 8 15 5 8 -4 15 -2 15 3 0 5 26 23 58 38 31 16 59 32 62 35 3 3
20 16 38 29 19 13 44 33 57 45 13 12 36 28 51 36 16 8 36 22 45 30 9 8 47 42
84 75 91 80 196 185 215 214 8 13 20 29 25 35 6 6 21 28 35 48 14 21 29 38 33
38 5 0 5 5 2 10 -3 6 1 10 9 10 9 0 16 6 16 14 0 8 7 17 16 20 8 3 12 10 9 16
-3 5 -2 10 3 10 11 0 65 81 95 140 23 46 40 75 55 92 6 8 9 18 5 21 -3 4 -2 7
4 7 9 0 22 25 28 55 7 34 18 65 24 65 4 0 13 17 20 38 22 65 42 103 57 109 11
4 12 9 4 18 -8 10 -8 15 0 20 6 4 9 13 6 21 -3 8 -2 14 3 14 19 0 83 190 85
253 0 9 3 17 6 17 7 0 8 17 9 163 1 118 0 135 -12 153 -3 6 -3 14 1 18 10 11
9 86 -1 86 -5 0 -4 6 2 13 6 8 9 16 6 19 -10 9 -12 69 -3 74 5 3 5 11 -2 19
-6 7 -12 44 -15 81 -6 98 -19 209 -25 209 -2 0 -8 34 -13 72 -2 18 -9 39 -15
46 -7 8 -9 17 -5 20 3 4 2 7 -4 7 -5 0 -10 6 -10 13 0 6 -10 32 -21 56 -12 25
-22 51 -22 60 0 8 -3 11 -7 8 -6 -7 -40 77 -48 122 -2 13 -10 31 -18 40 -14
17 -41 76 -35 77 1 0 -5 8 -14 18 -10 10 -18 24 -18 32 0 23 -1 28 -9 39 -5 6
-11 24 -15 40 -4 17 -21 51 -37 78 -16 26 -26 47 -24 47 3 0 -3 10 -15 22 -11
12 -20 27 -20 33 0 6 -9 18 -20 28 -11 9 -20 24 -20 32 0 8 -4 15 -10 15 -5 0
-10 7 -10 15 0 8 -5 15 -12 15 -6 0 -9 3 -5 6 6 6 -24 52 -65 99 -45 52 -107
115 -113 115 -3 0 -11 5 -18 10 -7 6 -50 38 -97 72 -47 33 -87 65 -88 70 -2 4
-8 6 -13 2 -5 -3 -9 2 -9 11 0 9 -4 13 -10 10 -5 -3 -10 -2 -10 4 0 5 -9 13
-20 16 -11 4 -31 16 -43 28 -28 27 -103 77 -117 77 -5 0 -10 5 -10 10 0 6 -7
10 -15 10 -8 0 -15 4 -15 9 0 8 -37 24 -52 22 -5 -1 -8 4 -8 10 0 5 -4 8 -9 4
-5 -3 -12 -1 -16 5 -3 5 -15 10 -26 10 -10 0 -19 4 -19 9 0 5 -21 14 -46 20
-47 12 -78 33 -66 45 3 4 -6 5 -22 2 -16 -3 -47 1 -70 9 -22 8 -50 15 -62 15
-11 0 -25 5 -32 12 -6 6 -25 11 -42 10 -17 0 -28 3 -25 7 4 8 -48 26 -100 36
-11 2 -20 4 -20 5 0 5 -111 20 -194 26 -41 2 -78 7 -82 10 -5 3 -9 -1 -9 -8 0
-8 -3 -9 -8 -3 -4 6 -47 10 -97 9 -49 0 -98 4 -109 9 -10 5 -16 5 -13 0z"/>
</g>
</svg>
